<svg width="70" height="65" viewBox="0 0 70 65" fill="none" xmlns="http://www.w3.org/2000/svg">
<path fill-rule="evenodd" clip-rule="evenodd" d="M16.4247 0.567269C11.0474 1.36256 6.38777 4.58505 3.40888 9.569C1.04887 13.5172 -0.188888 18.7114 0.189249 23.0787C0.771923 29.8072 3.80269 36.2909 8.81101 41.5235C9.54337 42.2886 15.6113 47.9005 22.2952 53.9942C34.3061 64.9444 34.4511 65.0707 34.7241 64.8242C34.8761 64.6871 40.624 59.5291 47.497 53.3621C59.284 42.7859 61.1855 40.9878 62.8528 38.8407C67.2085 33.2317 69.7505 25.4661 69.1246 19.6801C68.7767 16.463 68.1009 13.9646 66.8937 11.4312C64.6412 6.7046 60.9812 3.18153 56.5984 1.52148C52.0237 -0.211299 46.6991 0.07854 42.3081 2.29923C39.4568 3.74109 36.846 6.0254 35.1778 8.53757L34.477 9.59293L33.8074 8.57686C31.4363 4.97889 27.8326 2.25927 23.9226 1.1169C21.4522 0.395024 18.8694 0.205786 16.4247 0.567269ZM22.4365 3.47354C25.561 4.26571 28.6491 6.24877 30.6004 8.71648C31.7652 10.1895 32.6854 11.7993 33.5849 13.9372C34.06 15.0666 34.4585 15.9777 34.4707 15.962C34.4827 15.9464 34.8657 15.0629 35.3217 13.9987C35.7776 12.9345 36.4274 11.5928 36.7657 11.0171C40.8143 4.12609 49.2338 1.22824 56.2783 4.30133C61.6109 6.62751 65.3198 12.0008 66.3481 18.8895C67.322 25.4144 64.4136 33.4244 58.9208 39.3457C58.0238 40.3127 34.8218 61.2681 34.5217 61.3822C34.3506 61.4473 11.3361 40.377 10.1735 39.0907C6.26119 34.7627 3.79472 29.6631 2.98414 24.2264C2.42335 20.4654 3.16355 15.9134 4.90711 12.399C7.28712 7.60198 11.197 4.39119 15.9106 3.36288C17.5711 3.00072 20.7859 3.05524 22.4365 3.47354ZM18.7213 8.79084C12.8476 10.055 8.68632 14.7819 8.10918 20.8453C7.99435 22.0523 8.18673 22.7232 8.72874 23.0052C9.30466 23.3049 9.75102 23.2515 10.2241 22.8261C10.6173 22.4725 10.6555 22.3573 10.7607 21.2104C10.962 19.0153 11.5026 17.469 12.6553 15.791C13.8572 14.0417 15.5703 12.6856 17.5534 11.9139C18.4902 11.5493 19.2694 11.3953 21.3776 11.1578C22.5859 11.0217 23.0755 9.75837 22.2443 8.92189C21.8772 8.55252 21.7794 8.5252 20.8595 8.53403C20.3151 8.53934 19.3529 8.65489 18.7213 8.79084Z" fill="#334662"/>
</svg>
