<svg width="43" height="35" viewBox="0 0 43 35" fill="none" xmlns="http://www.w3.org/2000/svg">
<path d="M0.382812 34.5547V26.0469C0.382812 23.1875 0.851562 20.2109 1.78906 17.1172C2.77344 13.9766 4.17969 10.9766 6.00781 8.11719C7.83594 5.21094 10.0391 2.70312 12.6172 0.59375L20 5.72656C17.8438 8.82031 16.1797 12.0078 15.0078 15.2891C13.8359 18.5234 13.25 22.0391 13.25 25.8359V34.5547H0.382812ZM22.5312 34.5547V26.0469C22.5312 23.1875 23 20.2109 23.9375 17.1172C24.9219 13.9766 26.3281 10.9766 28.1562 8.11719C29.9844 5.21094 32.1875 2.70312 34.7656 0.59375L42.1484 5.72656C39.9922 8.82031 38.3281 12.0078 37.1562 15.2891C35.9844 18.5234 35.3984 22.0391 35.3984 25.8359V34.5547H22.5312Z" fill="#334662" fill-opacity="0.7"/>
</svg>
