<svg width="94" height="100" viewBox="0 0 94 100" fill="none" xmlns="http://www.w3.org/2000/svg">
<path fill-rule="evenodd" clip-rule="evenodd" d="M14.3025 0.487289C13.7573 0.955245 13.7561 0.961464 13.6895 3.7832L13.6228 6.61037L7.51451 6.66673C1.45296 6.7227 1.40254 6.72658 0.962814 7.16578L0.51978 7.60828L0.469948 52.9937L0.419922 98.3791L0.990261 98.9485L1.56041 99.5177H46.945H92.3295L92.8997 98.9485L93.47 98.3791L93.42 52.9937L93.3701 7.60828L92.9271 7.16578C92.4874 6.72658 92.437 6.7227 86.3754 6.66673L80.2672 6.61037L80.2004 3.7832C80.1338 0.961464 80.1326 0.955245 79.5874 0.487289L79.0412 0.0185547H72.8103C66.4618 0.0185547 66.0435 0.0620856 65.4921 0.778984C65.3319 0.987311 65.2528 1.98677 65.2488 3.85666L65.2425 6.62592H46.945H28.6474L28.6412 3.85666C28.6371 1.98677 28.5581 0.987311 28.3979 0.778984C27.8464 0.0620856 27.4281 0.0185547 21.0796 0.0185547H14.8487L14.3025 0.487289ZM25.3383 8.27776V13.2333H21.1532H16.9681V8.27776V3.32224H21.1532H25.3383V8.27776ZM76.9218 8.27776V13.2333H72.7367H68.5517V8.27776V3.32224H72.7367H76.9218V8.27776ZM13.6932 12.7323C13.753 15.3883 13.781 15.5614 14.2282 16.036L14.7002 16.537H21.196H27.6918L28.1695 16.0599C28.6332 15.5972 28.6474 15.4982 28.6474 12.7562V9.9296H46.945H65.2425V12.7562C65.2425 15.4982 65.2567 15.5972 65.7204 16.0599L66.1981 16.537H72.6939H79.1897L79.6618 16.036C80.1089 15.5614 80.1369 15.3883 80.1967 12.7323L80.2598 9.9296H85.2091H90.1583V17.4115V24.8933H46.945H3.73159V17.4115V9.9296H8.68088H13.6302L13.6932 12.7323ZM90.1583 62.2055V96.214H46.945H3.73159V62.2055V28.197H46.945H90.1583V62.2055ZM15.4109 62.2055V86.3029H46.945H78.4791V62.2055V38.1081H46.945H15.4109V62.2055ZM30.3536 47.2903L30.4051 53.0718H24.5626H18.72V47.2388V41.4059L24.511 41.4574L30.302 41.5089L30.3536 47.2903ZM45.1931 47.2418V53.0718H39.4508H33.7084V47.2418V41.4117H39.4508H45.1931V47.2418ZM60.1815 47.2418V53.0718H54.4392H48.6969V47.2418V41.4117H54.4392H60.1815V47.2418ZM75.1699 47.2418V53.0718H69.3303H63.4906V47.3714C63.4906 44.236 63.549 41.6125 63.6205 41.5414C63.6917 41.47 66.3195 41.4117 69.4601 41.4117H75.1699V47.2418ZM30.3993 62.2055V68.0355H24.5597H18.72V62.2055V56.3755H24.5597H30.3993V62.2055ZM45.1931 62.2055V68.0355H39.4508H33.7084V62.2055V56.3755H39.4508H45.1931V62.2055ZM60.1815 62.2055V68.0355H54.4392H48.6969V62.2055V56.3755H54.4392H60.1815V62.2055ZM75.1699 62.2055V68.0355H69.3303H63.4906V62.2055V56.3755H69.3303H75.1699V62.2055ZM30.3536 77.1206L30.302 82.9021L24.511 82.9536L18.72 83.0051V77.1721V71.3392H24.5626H30.4051L30.3536 77.1206ZM45.1931 77.1692V82.9993H39.4508H33.7084V77.1692V71.3392H39.4508H45.1931V77.1692ZM60.1815 77.1692V82.9993H54.4392H48.6969V77.1692V71.3392H54.4392H60.1815V77.1692ZM75.1699 77.1721V83.0051L69.3789 82.9536L63.588 82.9021L63.5364 77.1206L63.4848 71.3392H69.3274H75.1699V77.1721Z" fill="#FF7024"/>
</svg>
