<svg width="65" height="65" viewBox="0 0 65 65" fill="none" xmlns="http://www.w3.org/2000/svg">
<path fill-rule="evenodd" clip-rule="evenodd" d="M27.8655 0.26872C27.1244 0.545896 26.4068 1.17156 26.0253 1.87319L25.6527 2.55845L25.5906 6.40111C25.5474 9.07548 25.4828 10.3247 25.378 10.51C25.1175 10.9706 24.3712 11.5508 23.8591 11.6906C23.4986 11.7892 23.2068 11.785 22.7707 11.675C22.2317 11.5392 21.9269 11.277 19.5668 8.91938C17.236 6.5911 16.8874 6.28999 16.2893 6.08954C15.4551 5.8101 14.4305 5.88216 13.6582 6.27474C13.3047 6.45428 12.0564 7.61867 10.165 9.53295C6.74733 12.9919 6.51085 13.3446 6.61531 14.8264C6.64772 15.2867 6.77404 15.8613 6.89576 16.1033C7.01747 16.3453 8.24658 17.7055 9.6271 19.126C11.8978 21.4626 12.151 21.7664 12.2843 22.313C12.392 22.7547 12.3959 23.0518 12.2989 23.4171C12.1611 23.9365 11.5891 24.6936 11.135 24.9578C10.9523 25.0641 9.72087 25.1296 7.08442 25.1735L3.29624 25.2365L2.6207 25.6144C1.92901 26.0014 1.31222 26.7293 1.03898 27.4811C0.834664 28.0431 0.834664 36.6666 1.03898 37.2286C1.31222 37.9804 1.92901 38.7084 2.6207 39.0953L3.29624 39.4732L7.08442 39.5362C9.72087 39.5801 10.9523 39.6456 11.135 39.7519C11.5891 40.0161 12.1611 40.7732 12.2989 41.2926C12.3959 41.6579 12.392 41.955 12.2843 42.3967C12.151 42.9434 11.8978 43.2471 9.6271 45.5837C8.24658 47.0042 7.01747 48.3644 6.89576 48.6064C6.77404 48.8485 6.64772 49.423 6.61531 49.8833C6.51085 51.3651 6.74733 51.7179 10.165 55.1768C12.0564 57.091 13.3047 58.2554 13.6582 58.435C14.4305 58.8276 15.4551 58.8996 16.2893 58.6202C16.8874 58.4197 17.236 58.1186 19.5668 55.7903C21.9269 53.4327 22.2317 53.1705 22.7707 53.0347C23.2068 52.9247 23.4986 52.9206 23.8591 53.0191C24.3712 53.1589 25.1175 53.7391 25.378 54.1997C25.4828 54.3851 25.5474 55.6342 25.5906 58.3086L25.6527 62.1513L26.0253 62.8365C26.4068 63.5382 27.1244 64.1638 27.8655 64.441C28.3873 64.6362 36.5595 64.6653 37.3038 64.4746C38.0808 64.2757 38.8876 63.6175 39.315 62.8343L39.6876 62.1513L39.7497 58.3086C39.793 55.6342 39.8575 54.3851 39.9624 54.1997C40.2228 53.7391 40.9692 53.1589 41.4812 53.0191C41.8418 52.9206 42.1336 52.9247 42.5696 53.0347C43.1087 53.1705 43.4135 53.4327 45.7736 55.7903C48.1044 58.1186 48.453 58.4197 49.051 58.6202C49.8868 58.9001 50.9117 58.8274 51.6821 58.4332C52.0325 58.2541 53.3007 57.0713 55.1761 55.175C58.5941 51.7187 58.8298 51.3675 58.725 49.8833C58.6926 49.423 58.5663 48.8485 58.4446 48.6064C58.3229 48.3644 57.0938 47.0042 55.7133 45.5837C53.4426 43.2471 53.1893 42.9434 53.0561 42.3967C52.9484 41.955 52.9444 41.6579 53.0414 41.2926C53.1793 40.7732 53.7512 40.0161 54.2053 39.7519C54.388 39.6456 55.6195 39.5801 58.2559 39.5362L62.0441 39.4732L62.7197 39.0953C63.4113 38.7084 64.0281 37.9804 64.3014 37.2286C64.5057 36.6666 64.5057 28.0431 64.3014 27.4811C64.0281 26.7293 63.4113 26.0014 62.7197 25.6144L62.0441 25.2365L58.2559 25.1735C55.6195 25.1296 54.388 25.0641 54.2053 24.9578C53.7512 24.6936 53.1793 23.9365 53.0414 23.4171C52.9444 23.0518 52.9484 22.7547 53.0561 22.313C53.1893 21.7664 53.4426 21.4626 55.7133 19.126C57.0938 17.7055 58.3229 16.3453 58.4446 16.1033C58.5663 15.8613 58.6926 15.2867 58.725 14.8264C58.8295 13.3446 58.593 12.9919 55.1753 9.53295C53.284 7.61867 52.0356 6.45428 51.6821 6.27474C50.9098 5.88216 49.8853 5.8101 49.051 6.08954C48.453 6.28999 48.1044 6.5911 45.7736 8.91938C43.4135 11.277 43.1087 11.5392 42.5696 11.675C42.1336 11.785 41.8418 11.7892 41.4812 11.6906C40.9692 11.5508 40.2228 10.9706 39.9624 10.51C39.8575 10.3247 39.793 9.07548 39.7497 6.40111L39.6876 2.55845L39.315 1.87319C38.9336 1.17156 38.216 0.545896 37.4748 0.26872C36.9208 0.0614682 28.4196 0.0614682 27.8655 0.26872ZM37.0345 2.73609L37.3278 2.9766L37.3899 6.79924L37.452 10.6217L37.8123 11.4132C38.6851 13.3303 40.8671 14.4906 42.8271 14.0799C44.1463 13.8035 44.632 13.4448 47.2763 10.7937C49.5297 8.53448 49.8134 8.29095 50.1921 8.29095C50.5737 8.29095 50.872 8.55502 53.5022 11.2232C56.1326 13.8913 56.3929 14.1938 56.3929 14.581C56.3929 14.9651 56.1528 15.2529 53.9256 17.5387C51.3121 20.221 50.9585 20.7137 50.686 22.0519C50.2811 24.0401 51.425 26.2535 53.3149 27.1388L54.0951 27.5043L57.8635 27.5673L61.6319 27.6303L61.869 27.9277C62.0917 28.2069 62.1062 28.478 62.1062 32.3549C62.1062 36.2317 62.0917 36.5028 61.869 36.782L61.6319 37.0794L57.8635 37.1424L54.0951 37.2054L53.3149 37.5709C52.7816 37.8208 52.323 38.1682 51.8661 38.6689C50.9846 39.6348 50.6463 40.5158 50.6368 41.8701C50.6308 42.7531 50.6803 42.9904 51.0289 43.746C51.376 44.4983 51.7513 44.9427 53.9105 47.1571C56.1522 49.4564 56.3929 49.7445 56.3929 50.1288C56.3929 50.5159 56.1326 50.8184 53.5022 53.4865C50.872 56.1547 50.5737 56.4188 50.1921 56.4188C49.8134 56.4188 49.5297 56.1752 47.2763 53.916C44.632 51.2649 44.1463 50.9062 42.8271 50.6298C40.8671 50.2191 38.6851 51.3795 37.8123 53.2965L37.452 54.088L37.3899 57.9105L37.3278 61.7331L37.0345 61.9736C36.7593 62.1995 36.492 62.2143 32.6702 62.2143C28.8483 62.2143 28.5811 62.1995 28.3058 61.9736L28.0126 61.7331L27.9505 57.9105L27.8884 54.088L27.5314 53.3041C27.155 52.4773 26.2191 51.4591 25.479 51.0708C24.7161 50.6706 23.4222 50.4739 22.5767 50.6293C21.2364 50.8759 20.753 51.228 18.0672 53.9142C15.8135 56.1683 15.5213 56.4188 15.1459 56.4188C14.7672 56.4188 14.4619 56.1481 11.8382 53.4865C9.20779 50.8184 8.94746 50.5159 8.94746 50.1288C8.94746 49.7446 9.18754 49.4569 11.4147 47.171C14.0282 44.4887 14.3818 43.996 14.6543 42.6579C15.0592 40.6696 13.9153 38.4563 12.0255 37.5709L11.2452 37.2054L7.4769 37.1424L3.70847 37.0794L3.47136 36.782C3.24867 36.5028 3.23414 36.2317 3.23414 32.3549C3.23414 28.478 3.24867 28.2069 3.47136 27.9277L3.70847 27.6303L7.4769 27.5673L11.2452 27.5043L12.0255 27.1388C12.5588 26.8889 13.0173 26.5415 13.4743 26.0408C14.3557 25.075 14.6941 24.1939 14.7035 22.8397C14.7096 21.9566 14.66 21.7194 14.3114 20.9637C13.9644 20.2114 13.589 19.767 11.4299 17.5527C9.18817 15.2534 8.94746 14.9652 8.94746 14.581C8.94746 14.1938 9.20779 13.8913 11.8382 11.2232C14.4684 8.55502 14.7666 8.29095 15.1483 8.29095C15.527 8.29095 15.8107 8.53448 18.0641 10.7937C20.7083 13.4448 21.1941 13.8035 22.5133 14.0799C24.4733 14.4906 26.6553 13.3303 27.5281 11.4132L27.8884 10.6217L27.9505 6.79924L28.0126 2.9766L28.3058 2.73609C28.5811 2.51019 28.8483 2.49545 32.6702 2.49545C36.492 2.49545 36.7593 2.51019 37.0345 2.73609ZM30.9934 21.7273C30.3856 21.8256 28.9406 22.2805 28.2447 22.5926C26.1548 23.5302 23.9729 25.7407 23.0515 27.8539C22.3282 29.5132 22.1808 30.2752 22.1808 32.3549C22.1808 34.4346 22.3282 35.1965 23.0515 36.8558C23.9729 38.969 26.1548 41.1795 28.2447 42.1171C29.868 42.8453 30.6234 42.9951 32.6702 42.9951C34.7169 42.9951 35.4723 42.8453 37.0956 42.1171C39.1856 41.1795 41.3675 38.969 42.2888 36.8558C43.0122 35.1965 43.1596 34.4346 43.1596 32.3549C43.1596 30.6623 43.1211 30.2768 42.8702 29.4627C42.0649 26.8499 40.6533 24.8768 38.5698 23.4517C37.5487 22.7535 37.1907 22.5787 35.8659 22.1325C34.856 21.7923 34.5199 21.7415 33.0428 21.7066C32.1206 21.6848 31.1984 21.6942 30.9934 21.7273ZM34.706 24.288C36.188 24.6726 37.2992 25.3272 38.4487 26.4932C40.0764 28.1443 40.8676 30.0616 40.8676 32.3549C40.8676 34.6481 40.0764 36.5654 38.4487 38.2165C36.821 39.8676 34.9309 40.6701 32.6702 40.6701C30.4094 40.6701 28.5193 39.8676 26.8916 38.2165C24.7926 36.0872 23.992 33.1681 24.7177 30.2898C25.4449 27.4056 27.7536 25.0465 30.5856 24.294C31.8096 23.9685 33.4654 23.9663 34.706 24.288Z" fill="#334662"/>
</svg>
