<svg width="47" height="65" viewBox="0 0 47 65" fill="none" xmlns="http://www.w3.org/2000/svg">
<path fill-rule="evenodd" clip-rule="evenodd" d="M21.7545 0.141844C16.0024 0.72318 11.3582 2.86603 7.52447 6.70742C1.99674 12.2465 -0.366259 21.3819 1.51632 29.9355C2.06178 32.4141 3.33965 35.5316 4.54958 37.3356C6.71667 40.5666 23.3831 64.6034 23.4563 64.6034C23.5295 64.6034 40.1959 40.5666 42.363 37.3356C42.6615 36.8905 43.233 35.8391 43.6331 34.9991C45.2314 31.6428 46.021 28.0266 46.021 24.0632C46.021 17.2259 43.6289 10.9675 39.3878 6.70817C36.0124 3.31842 31.6621 1.084 27.049 0.37069C25.8842 0.190594 22.6536 0.0509113 21.7545 0.141844ZM26.2927 2.64514C32.3284 3.57239 37.4158 6.88271 40.4774 11.8753C42.8374 15.7236 44.023 20.8833 43.6463 25.6659C43.3658 29.2275 42.5144 32.2703 41.0627 34.8996C40.4269 36.0513 23.6145 60.4357 23.4563 60.4357C23.3006 60.4357 6.49102 36.0608 5.86589 34.9285C2.58581 28.9875 2.32058 20.922 5.18757 14.2995C7.87945 8.08138 13.5578 3.76196 20.4939 2.656C21.8619 2.43789 24.9066 2.4322 26.2927 2.64514ZM22.763 14.2823C22.6243 14.3143 22.1989 14.4017 21.8175 14.4763C20.8997 14.6562 19.2613 15.4576 18.4769 16.1106C17.1808 17.1894 16.0137 19.0209 15.663 20.5265C14.8327 24.0903 16.3497 27.7089 19.4654 29.5971C21.1282 30.6048 23.4204 30.9886 25.3472 30.5818C27.7178 30.0815 29.9417 28.3611 31.0014 26.2082C33.2387 21.6624 31.0634 16.3431 26.2935 14.696C25.2906 14.3497 23.4208 14.1305 22.763 14.2823ZM25.1667 16.8466C29.5395 18.024 30.998 23.4477 27.8026 26.649C26.68 27.7738 25.2833 28.3568 23.7116 28.3568C18.4589 28.3568 15.8357 22.0789 19.5384 18.3694C21.0576 16.8473 23.1084 16.2924 25.1667 16.8466Z" fill="#334662"/>
</svg>
